<svg viewBox="0 0 512 512" className="mark" title="check-circle">
<path fill="#ff0000" opacity="1.000000" stroke="none" 
	d="
M280.000000,513.000000 
	C265.645782,513.000000 251.291550,513.000000 236.311493,512.598511 
	C225.048294,510.783752 214.210220,510.226410 203.813141,507.788391 
	C177.941956,501.721802 153.147369,492.618683 130.122482,479.041840 
	C111.283752,467.933411 93.827065,455.016968 78.277718,439.653656 
	C71.737984,433.192169 65.273369,426.488525 59.838474,419.111206 
	C49.998268,405.754242 39.934311,392.385956 31.806046,377.982727 
	C17.498934,352.630676 8.134641,325.305695 3.925031,296.342255 
	C3.366729,292.500946 1.995008,288.777832 0.999999,285.000000 
	C1.000000,266.645782 1.000000,248.291550 1.387607,229.329834 
	C3.176330,220.763809 4.555648,212.801376 5.982460,204.847458 
	C11.183379,175.854385 22.262608,149.021530 37.606102,124.137955 
	C52.404659,100.138145 70.387947,78.694649 92.515717,60.763931 
	C110.946854,45.828686 130.515945,33.042439 152.163177,23.313711 
	C175.233643,12.945354 199.136475,5.764492 224.319305,2.964989 
	C228.237259,2.529440 232.107620,1.665723 236.000000,1.000000 
	C250.354233,1.000000 264.708466,1.000000 279.691132,1.403420 
	C284.227173,2.203973 288.206818,2.257597 292.029633,3.059016 
	C306.831909,6.162160 321.761047,8.868580 336.309692,12.919538 
	C353.839264,17.800510 370.119934,25.884924 385.909149,34.956013 
	C413.545715,50.833584 437.468323,71.094238 457.321899,95.955048 
	C472.560760,115.037270 484.924622,135.941864 494.220581,158.605637 
	C502.568481,178.958023 508.433655,199.944763 511.027435,221.822586 
	C511.511139,225.902328 512.333801,229.941895 513.000000,234.000000 
	C513.000000,248.354233 513.000000,262.708466 512.596558,277.691162 
	C511.131256,286.386078 510.156036,294.465057 508.990997,302.516571 
	C505.717834,325.137817 498.168060,346.461945 488.416138,366.968903 
	C479.025391,386.716400 467.037933,404.816681 453.035858,421.737793 
	C440.684937,436.663483 426.933228,450.029388 411.582367,461.581818 
	C396.177277,473.175140 379.699097,483.210968 361.939392,491.085175 
	C339.269043,501.136688 315.870514,508.279358 291.177185,511.035828 
	C287.425110,511.454681 283.724457,512.333740 280.000000,513.000000 
M297.499969,174.999985 
	C284.364288,188.147202 271.228577,201.294434 258.274628,214.259750 
	C249.550903,206.063797 241.215500,198.477158 233.153549,190.610275 
	C213.160431,171.100922 193.304230,151.451263 173.354019,131.897797 
	C171.496155,130.076874 169.483017,128.359055 167.334091,126.899414 
	C153.686966,117.629715 137.330444,121.322960 128.667435,132.105225 
	C117.995667,145.387680 119.653580,161.105789 131.464523,172.949249 
	C157.826538,199.383865 184.237869,225.769379 210.700409,252.103256 
	C211.952362,253.349091 213.891861,253.904007 215.840302,254.958893 
	C212.853760,257.786407 211.497726,259.010956 210.207108,260.300934 
	C183.684311,286.810425 157.146149,313.304626 130.666519,339.857147 
	C123.078636,347.465942 119.807129,357.110443 122.329536,367.234680 
	C127.655098,388.609894 151.068558,396.929565 167.310104,384.848480 
	C176.785950,377.799957 185.079803,369.105743 193.591446,360.829041 
	C213.976898,341.006317 234.175049,320.990967 254.455811,301.060516 
	C255.604126,299.932037 256.815430,298.867615 258.576416,297.237335 
	C259.815979,298.789551 260.738647,300.199585 261.904205,301.367096 
	C288.162476,327.669800 314.437408,353.955963 340.749023,380.205322 
	C342.589294,382.041199 344.605988,383.766754 346.766388,385.204315 
	C360.172882,394.124725 376.172852,390.881042 385.088379,380.144470 
	C395.849670,367.185211 394.590515,351.209991 382.768341,339.318848 
	C356.329529,312.725769 329.768982,286.253601 303.219147,259.771179 
	C302.064026,258.618958 300.522125,257.854492 297.720734,255.910248 
	C300.423035,254.132050 302.013397,253.425705 303.164154,252.278412 
	C329.956116,225.566940 356.863983,198.968369 383.385284,171.989990 
	C396.808563,158.335327 394.689301,139.394760 381.963379,128.776199 
	C368.983002,117.945282 353.043793,119.571541 341.144226,131.378296 
	C326.710449,145.699448 312.376923,160.121567 297.499969,174.999985 
z"/>
<path fill="#FFFFFF" opacity="1.000000" stroke="none" 
	d="
M0.999999,285.468658 
	C1.995008,288.777832 3.366729,292.500946 3.925031,296.342255 
	C8.134641,325.305695 17.498934,352.630676 31.806046,377.982727 
	C39.934311,392.385956 49.998268,405.754242 59.838474,419.111206 
	C65.273369,426.488525 71.737984,433.192169 78.277718,439.653656 
	C93.827065,455.016968 111.283752,467.933411 130.122482,479.041840 
	C153.147369,492.618683 177.941956,501.721802 203.813141,507.788391 
	C214.210220,510.226410 225.048294,510.783752 235.842834,512.598511 
	C157.740738,513.000000 79.481476,513.000000 1.000000,513.000000 
	C1.000000,437.312592 1.000000,361.624939 0.999999,285.468658 
z"/>
<path fill="#FFFFFF" opacity="1.000000" stroke="none" 
	d="
M280.468658,513.000000 
	C283.724457,512.333740 287.425110,511.454681 291.177185,511.035828 
	C315.870514,508.279358 339.269043,501.136688 361.939392,491.085175 
	C379.699097,483.210968 396.177277,473.175140 411.582367,461.581818 
	C426.933228,450.029388 440.684937,436.663483 453.035858,421.737793 
	C467.037933,404.816681 479.025391,386.716400 488.416138,366.968903 
	C498.168060,346.461945 505.717834,325.137817 508.990997,302.516571 
	C510.156036,294.465057 511.131256,286.386078 512.596558,278.159821 
	C513.000000,356.260040 513.000000,434.520111 513.000000,513.000000 
	C435.645905,513.000000 358.291626,513.000000 280.468658,513.000000 
z"/>
<path fill="#FFFFFF" opacity="1.000000" stroke="none" 
	d="
M235.531342,1.000000 
	C232.107620,1.665723 228.237259,2.529440 224.319305,2.964989 
	C199.136475,5.764492 175.233643,12.945354 152.163177,23.313711 
	C130.515945,33.042439 110.946854,45.828686 92.515717,60.763931 
	C70.387947,78.694649 52.404659,100.138145 37.606102,124.137955 
	C22.262608,149.021530 11.183379,175.854385 5.982460,204.847458 
	C4.555648,212.801376 3.176330,220.763809 1.387607,228.861176 
	C1.000000,153.071854 1.000000,77.143700 1.000000,1.000000 
	C79.020760,1.000000 157.041718,1.000000 235.531342,1.000000 
z"/>
<path fill="#FFFFFF" opacity="1.000000" stroke="none" 
	d="
M513.000000,233.531342 
	C512.333801,229.941895 511.511139,225.902328 511.027435,221.822586 
	C508.433655,199.944763 502.568481,178.958023 494.220581,158.605637 
	C484.924622,135.941864 472.560760,115.037270 457.321899,95.955048 
	C437.468323,71.094238 413.545715,50.833584 385.909149,34.956013 
	C370.119934,25.884924 353.839264,17.800510 336.309692,12.919538 
	C321.761047,8.868580 306.831909,6.162160 292.029633,3.059016 
	C288.206818,2.257597 284.227173,2.203973 280.159790,1.403420 
	C357.593719,1.000000 435.187408,1.000000 513.000000,1.000000 
	C513.000000,78.354088 513.000000,155.708389 513.000000,233.531342 
z"/>
<path fill="#FFFFFF" opacity="1.000000" stroke="none" 
	d="
M297.750000,174.750000 
	C312.376923,160.121567 326.710449,145.699448 341.144226,131.378296 
	C353.043793,119.571541 368.983002,117.945282 381.963379,128.776199 
	C394.689301,139.394760 396.808563,158.335327 383.385284,171.989990 
	C356.863983,198.968369 329.956116,225.566940 303.164154,252.278412 
	C302.013397,253.425705 300.423035,254.132050 297.720734,255.910248 
	C300.522125,257.854492 302.064026,258.618958 303.219147,259.771179 
	C329.768982,286.253601 356.329529,312.725769 382.768341,339.318848 
	C394.590515,351.209991 395.849670,367.185211 385.088379,380.144470 
	C376.172852,390.881042 360.172882,394.124725 346.766388,385.204315 
	C344.605988,383.766754 342.589294,382.041199 340.749023,380.205322 
	C314.437408,353.955963 288.162476,327.669800 261.904205,301.367096 
	C260.738647,300.199585 259.815979,298.789551 258.576416,297.237335 
	C256.815430,298.867615 255.604126,299.932037 254.455811,301.060516 
	C234.175049,320.990967 213.976898,341.006317 193.591446,360.829041 
	C185.079803,369.105743 176.785950,377.799957 167.310104,384.848480 
	C151.068558,396.929565 127.655098,388.609894 122.329536,367.234680 
	C119.807129,357.110443 123.078636,347.465942 130.666519,339.857147 
	C157.146149,313.304626 183.684311,286.810425 210.207108,260.300934 
	C211.497726,259.010956 212.853760,257.786407 215.840302,254.958893 
	C213.891861,253.904007 211.952362,253.349091 210.700409,252.103256 
	C184.237869,225.769379 157.826538,199.383865 131.464523,172.949249 
	C119.653580,161.105789 117.995667,145.387680 128.667435,132.105225 
	C137.330444,121.322960 153.686966,117.629715 167.334091,126.899414 
	C169.483017,128.359055 171.496155,130.076874 173.354019,131.897797 
	C193.304230,151.451263 213.160431,171.100922 233.153549,190.610275 
	C241.215500,198.477158 249.550903,206.063797 258.274628,214.259750 
	C271.228577,201.294434 284.364288,188.147202 297.750000,174.750000 
z"/>
</svg>